<svg id="Layer_1" data-name="Layer 1" xmlns="http://www.w3.org/2000/svg" width="191.87" height="55.48" viewBox="0 0 191.87 55.48"><defs><style>.cls-1{fill:none;}</style></defs><title>among_us_logo-freelogovectors.net_</title><path d="M65.48,77.42c-.45.43-1,.81-1.15,1.46-2,10.61-3.57,21.28-5,32a22,22,0,0,1-.58,3.6,29.8,29.8,0,0,1-.6-3.13c-.68-4.18-1.23-8.39-2-12.56-.87-5.61-2.81-11-3.25-16.69a7.79,7.79,0,0,0-1.47-3.88.71.71,0,0,0-1-.19,2.12,2.12,0,0,0-.75,1.48c-2,14.27-4.32,28.49-6.65,42.7.27.3.75.25,1.12.35s1.14.1,1.27-.46a23.94,23.94,0,0,0,.44-3C47.6,108.13,49.22,97.2,51,86.3a5.43,5.43,0,0,1,.56,1.75c.41,2.16.94,4.29,1.42,6.44.73,3.07,1.23,6.18,1.71,9.29q1.18,7.5,2.39,15a15.1,15.1,0,0,0,.85,3.46c.5.5,1.31.23,1.95.29a32,32,0,0,0,1-6.15q1.19-10.45,2.83-20.84c.49-3.22,1.08-6.42,1.56-9.65a2.25,2.25,0,0,1,.43-.75c1.41,10.52,2.53,21.07,3.63,31.62a41.5,41.5,0,0,0,.76,5.2.78.78,0,0,0,.81.6,7.28,7.28,0,0,0,1.46-.23c0-1.08-.25-2.16-.35-3.24-1.62-13.3-3-26.65-5-39.91-.13-.85-1-1.29-1.58-1.76M104.6,79c-.71,7.38.18,14.78.19,22.17q0,6.85-.34,13.7c-.15-.15-.39-.25-.44-.47-2.93-11.38-4.83-23-8.65-34.18a8.11,8.11,0,0,0-.78-1.81c-.29-.41-.83-.39-1.27-.41a1.54,1.54,0,0,0-1.51.67,7.91,7.91,0,0,0-.51,3.74c.08,13.19.1,26.37.17,39.56,0,.29.29.42.51.51a3.55,3.55,0,0,0,2.15-.25,99.2,99.2,0,0,1-.41-10.91c0-4.13,0-8.26-.06-12.39,0-5.16-.05-10.33.1-15.49a16.88,16.88,0,0,1,1.44,4.15c2.81,10,4.61,20.15,7.2,30.16.52,1.46.77,3,1.38,4.45a1.83,1.83,0,0,0,2.29,0,13.84,13.84,0,0,0,.34-2.22c.7-8.77.67-17.58.51-26.36a118.2,118.2,0,0,1,0-14.21,2.24,2.24,0,0,0-1-2c-.56.4-1.26.84-1.27,1.61m-85.4.56a16.69,16.69,0,0,0-2.82,4.57A43,43,0,0,0,12.8,98a123.9,123.9,0,0,0-.41,22.54,2.81,2.81,0,0,0,1.45,2,7.16,7.16,0,0,0,.92-.09c2.39-.29,4.83.27,7.2-.29.33-2.1.15-4.23.33-6.33a14.05,14.05,0,0,1,.14-2.75,1.51,1.51,0,0,1,1-1,5.91,5.91,0,0,1,2.79-.36A1.85,1.85,0,0,1,27.73,113c.6,2.66.45,5.4.59,8.1,0,.78.79,1.27,1.46,1.37,3.3-.59,6.66.11,10-.38a1.71,1.71,0,0,0,.08-.63c-.48-4.17-.43-8.38-.8-12.57a6.08,6.08,0,0,0,3.14-2.59c.85-1.76.67-3.78.53-5.67A42.14,42.14,0,0,0,40.57,90.6a10.38,10.38,0,0,0-1.61-3c-.69-1.07-2.06-1.14-3.18-1.45a11.77,11.77,0,0,0-3.72-5.59,13.43,13.43,0,0,0-3.54-1.8,13.86,13.86,0,0,0-6.42-1,6.19,6.19,0,0,0-2.9,1.85m60.07-1.85c-1.57.46-2.32,2.08-2.81,3.5a38.84,38.84,0,0,0-1.88,12.21A107.13,107.13,0,0,0,75,109.25a38.62,38.62,0,0,0,2.42,10.27,4.86,4.86,0,0,0,3.9,3,2.42,2.42,0,0,0,1.48-.17,5.77,5.77,0,0,0,2.72-3.15c2.23-6,2.83-12.52,2.94-18.91A65.41,65.41,0,0,0,88,89a25,25,0,0,0-3-8.77,5,5,0,0,0-2.28-1.85,5.69,5.69,0,0,0-3.47-.64m37.17,0c-1.77.38-2.81,2-3.66,3.49a26.11,26.11,0,0,0-3,10.77,135.87,135.87,0,0,0-.18,15.89,29.17,29.17,0,0,0,1.69,9.89c.68,1.53,1.47,3.21,3.06,4,1.38.66,3.1,1.11,4.53.35a7.07,7.07,0,0,0,2.18-1.44,9.26,9.26,0,0,0,1.8-3.34,34.37,34.37,0,0,0,1.19-11.73,29.23,29.23,0,0,0,4-.16,1.69,1.69,0,0,0,1.33-1.68.94.94,0,0,0-.85-.9,41.15,41.15,0,0,0-5.44-.15,1.43,1.43,0,0,0-1.45,1.56,50.76,50.76,0,0,1-.8,11.35,6.22,6.22,0,0,1-1.46,3,3.78,3.78,0,0,1-2.31.73,2.69,2.69,0,0,1-2.59-.95c-1.74-2.58-2.08-5.76-2.33-8.77-.42-7.68-.73-15.51,1.17-23a11.08,11.08,0,0,1,2.16-4.74,4.47,4.47,0,0,1,2.29-1.45c1.26-.21,2.45.52,3.71.4a1.6,1.6,0,0,0-.24-2.54,7.4,7.4,0,0,0-4.78-.52m33.38-.1c-.74.27-.92,1.15-.93,1.84A217.36,217.36,0,0,0,151,109.1a35.71,35.71,0,0,0,1.36,6.87,10.17,10.17,0,0,0,3.35,5.45,5,5,0,0,0,7.78-1.72,22.81,22.81,0,0,0,2.79-9c.38-3,.73-5.92.91-8.9.46-7.3.29-14.62.64-21.92,0-.68-.06-1.9-1-1.82a1.29,1.29,0,0,0-1.36,1.3c-.41,10.74.13,21.58-1.71,32.21-.41,2.2-.73,4.53-2,6.42a4.27,4.27,0,0,1-2.31,1.83,3.13,3.13,0,0,1-3.27-1.37c-1.78-2.48-2.22-5.58-2.69-8.52a197.75,197.75,0,0,1-2.1-30.75c0-.76-.63-1.78-1.5-1.49m25.07.83a15.63,15.63,0,0,0-4.31,13.24,10.26,10.26,0,0,0,2.66,5.6c1.6,1.51,3.68,2.3,5.54,3.41a16.76,16.76,0,0,1,3.17,2.51,11.61,11.61,0,0,1,3.39,5.41,9.56,9.56,0,0,1-1.49,7.86,7.5,7.5,0,0,1-5.34,3.25,4.62,4.62,0,0,1-3.77-1,8.5,8.5,0,0,1-1.85-3.45c-.78-2.84-.42-5.82-.6-8.73a2.58,2.58,0,0,0-1.18-1.67,2.66,2.66,0,0,0-1.05,2.17,45.13,45.13,0,0,0,.16,6.58,13.37,13.37,0,0,0,2.13,6.12,5,5,0,0,0,2.14,2,9.18,9.18,0,0,0,5.06.7,10.46,10.46,0,0,0,7-5.61,13,13,0,0,0-1-13.26,21,21,0,0,0-7.41-6.18c-1.5-.86-3.16-1.61-4.16-3.07a9.11,9.11,0,0,1-1.3-4.15,12.44,12.44,0,0,1,3.4-9.21c.19-.19.36-.43.65-.45a8.05,8.05,0,0,1,5.38.69c.66.35,1.12,1,1.74,1.36a.89.89,0,0,0,1.17-.08,1.69,1.69,0,0,0-.07-2.4,8.11,8.11,0,0,0-5.11-2.4c-1.67,0-3.66-.44-5,.82M20,81.91a4.24,4.24,0,0,1,3.77-2,18.17,18.17,0,0,1,6.07,1.92,7.6,7.6,0,0,1,2.82,2.52,20.38,20.38,0,0,1,2.11,6.15c2.27,9.63,2.12,19.58,2.65,29.39-2.3,0-4.6,0-6.91,0-.34-3.28.25-6.72-1-9.85a1.82,1.82,0,0,0-1.76-1.1,22.26,22.26,0,0,0-4.47.3,4.21,4.21,0,0,0-2.42,1.16,3.49,3.49,0,0,0-.68,1.74c-.48,2.57-.12,5.18-.32,7.77-1.79,0-3.58,0-5.36,0a117.86,117.86,0,0,1,0-18.12,56.07,56.07,0,0,1,2.83-14.74A23.46,23.46,0,0,1,20,81.91m3,3.39a16.19,16.19,0,0,0-3.66.75A2.51,2.51,0,0,0,18,87.84,23.48,23.48,0,0,0,17,93.61a3,3,0,0,0,1.77,2.61c2.14,1.35,4.78,1.45,7.24,1.24a14.49,14.49,0,0,0,4.84-.93,2,2,0,0,0,1.27-1.88,19.57,19.57,0,0,0-1.54-8c-.12-.4-.55-.5-.88-.66A13,13,0,0,0,23,85.3m56.79-4.86a2.7,2.7,0,0,1,2.33.28A3.72,3.72,0,0,1,83,82a22.84,22.84,0,0,1,2.83,10.51A83.44,83.44,0,0,1,85.6,107a48.17,48.17,0,0,1-1.93,10.25,4,4,0,0,1-1.28,2A1.77,1.77,0,0,1,80,119a7.62,7.62,0,0,1-1.24-2.91c-2.05-7.29-2-15-1.73-22.46.13-4.27.49-8.62,2.1-12.62a.79.79,0,0,1,.65-.54M22.46,87.28c1.9-.12,3.95-.47,5.74.37a2.33,2.33,0,0,1,1.18,1.55A37.08,37.08,0,0,1,30.22,93a1.32,1.32,0,0,1-.1,1.29,3.63,3.63,0,0,1-2.08,1,15,15,0,0,1-7.48-.15,2.38,2.38,0,0,1-1.72-2.18,7.8,7.8,0,0,1,1.52-5,5.51,5.51,0,0,1,2.1-.67m14,1.27a3,3,0,0,1,1.67,1.51c1.77,3.87,2.3,8.14,2.71,12.33.16,1.53-.33,3.41-1.91,4A110.23,110.23,0,0,0,36.82,90c-.12-.48-.24-1-.33-1.46Z" transform="translate(-4.06 -72.26)"/><path d="M65.48,77.42c.62.47,1.45.91,1.58,1.76,2,13.26,3.36,26.61,5,39.91.1,1.08.3,2.16.35,3.24a7.28,7.28,0,0,1-1.46.23.78.78,0,0,1-.81-.6,41.5,41.5,0,0,1-.76-5.2c-1.1-10.55-2.22-21.1-3.63-31.62a2.25,2.25,0,0,0-.43.75c-.48,3.23-1.07,6.43-1.56,9.65q-1.64,10.39-2.83,20.84a32,32,0,0,1-1,6.15c-.64-.06-1.45.21-1.95-.29a15.1,15.1,0,0,1-.85-3.46q-1.22-7.5-2.39-15c-.48-3.11-1-6.22-1.71-9.29-.48-2.15-1-4.28-1.42-6.44A5.43,5.43,0,0,0,51,86.3C49.22,97.2,47.6,108.13,45.8,119a23.94,23.94,0,0,1-.44,3c-.13.56-.83.48-1.27.46s-.85-.05-1.12-.35c2.33-14.21,4.64-28.43,6.65-42.7A2.12,2.12,0,0,1,50.37,78a.71.71,0,0,1,1,.19,7.79,7.79,0,0,1,1.47,3.88c.44,5.68,2.38,11.08,3.25,16.69.81,4.17,1.36,8.38,2,12.56a29.8,29.8,0,0,0,.6,3.13,22,22,0,0,0,.58-3.6c1.41-10.7,3-21.37,5-32,.11-.65.7-1,1.15-1.46M104.6,79c0-.77.71-1.21,1.27-1.61a2.24,2.24,0,0,1,1,2,118.2,118.2,0,0,0,0,14.21c.16,8.78.19,17.59-.51,26.36a13.84,13.84,0,0,1-.34,2.22,1.83,1.83,0,0,1-2.29,0c-.61-1.43-.86-3-1.38-4.45-2.59-10-4.39-20.21-7.2-30.16a16.88,16.88,0,0,0-1.44-4.15c-.15,5.16-.11,10.33-.1,15.49,0,4.13,0,8.26.06,12.39a99.2,99.2,0,0,0,.41,10.91,3.55,3.55,0,0,1-2.15.25c-.22-.09-.55-.22-.51-.51-.07-13.19-.09-26.37-.17-39.56a7.91,7.91,0,0,1,.51-3.74A1.54,1.54,0,0,1,93.31,78c.44,0,1,0,1.27.41a8.11,8.11,0,0,1,.78,1.81c3.82,11.14,5.72,22.8,8.65,34.18,0,.22.29.32.44.47q.28-6.85.34-13.7c0-7.39-.9-14.79-.19-22.17m-85.4.56a6.19,6.19,0,0,1,2.9-1.85,13.86,13.86,0,0,1,6.42,1,13.43,13.43,0,0,1,3.54,1.8,11.77,11.77,0,0,1,3.72,5.59c1.12.31,2.49.38,3.18,1.45a10.38,10.38,0,0,1,1.61,3,42.14,42.14,0,0,1,2.13,10.06c.14,1.89.32,3.91-.53,5.67A6.08,6.08,0,0,1,39,108.92c.37,4.19.32,8.4.8,12.57a1.71,1.71,0,0,1-.08.63c-3.31.49-6.67-.21-10,.38-.67-.1-1.5-.59-1.46-1.37-.14-2.7,0-5.44-.59-8.1a1.85,1.85,0,0,0-1.55-1.39,5.91,5.91,0,0,0-2.79.36,1.51,1.51,0,0,0-1,1,14.05,14.05,0,0,0-.14,2.75c-.18,2.1,0,4.23-.33,6.33-2.37.56-4.81,0-7.2.29a7.16,7.16,0,0,1-.92.09,2.81,2.81,0,0,1-1.45-2A123.9,123.9,0,0,1,12.8,98a43,43,0,0,1,3.58-13.86,16.69,16.69,0,0,1,2.82-4.57M20,81.91a23.46,23.46,0,0,0-2.69,5.22,56.07,56.07,0,0,0-2.83,14.74,117.86,117.86,0,0,0,0,18.12c1.78,0,3.57,0,5.36,0,.2-2.59-.16-5.2.32-7.77a3.49,3.49,0,0,1,.68-1.74,4.21,4.21,0,0,1,2.42-1.16,22.26,22.26,0,0,1,4.47-.3,1.82,1.82,0,0,1,1.76,1.1c1.28,3.13.69,6.57,1,9.85,2.31,0,4.61,0,6.91,0-.53-9.81-.38-19.76-2.65-29.39a20.38,20.38,0,0,0-2.11-6.15,7.6,7.6,0,0,0-2.82-2.52,18.17,18.17,0,0,0-6.07-1.92,4.24,4.24,0,0,0-3.77,2m16.48,6.64c.09.49.21,1,.33,1.46A110.23,110.23,0,0,1,39,106.4c1.58-.6,2.07-2.48,1.91-4-.41-4.19-.94-8.46-2.71-12.33a3,3,0,0,0-1.67-1.51M79.27,77.72a5.69,5.69,0,0,1,3.47.64A5,5,0,0,1,85,80.21,25,25,0,0,1,88,89a65.41,65.41,0,0,1,.45,11.28c-.11,6.39-.71,12.87-2.94,18.91a5.77,5.77,0,0,1-2.72,3.15,2.42,2.42,0,0,1-1.48.17,4.86,4.86,0,0,1-3.9-3A38.62,38.62,0,0,1,75,109.25a107.13,107.13,0,0,1-.39-15.82,38.84,38.84,0,0,1,1.88-12.21c.49-1.42,1.24-3,2.81-3.5m.51,2.72a.79.79,0,0,0-.65.54c-1.61,4-2,8.35-2.1,12.62-.24,7.51-.32,15.17,1.73,22.46A7.62,7.62,0,0,0,80,119a1.77,1.77,0,0,0,2.39.2,4,4,0,0,0,1.28-2A48.17,48.17,0,0,0,85.6,107a83.44,83.44,0,0,0,.25-14.4A22.84,22.84,0,0,0,83,82a3.72,3.72,0,0,0-.91-1.32,2.7,2.7,0,0,0-2.33-.28m36.66-2.7a7.4,7.4,0,0,1,4.78.52,1.6,1.6,0,0,1,.24,2.54c-1.26.12-2.45-.61-3.71-.4a4.47,4.47,0,0,0-2.29,1.45,11.08,11.08,0,0,0-2.16,4.74c-1.9,7.53-1.59,15.36-1.17,23,.25,3,.59,6.19,2.33,8.77a2.69,2.69,0,0,0,2.59.95,3.78,3.78,0,0,0,2.31-.73,6.22,6.22,0,0,0,1.46-3,50.76,50.76,0,0,0,.8-11.35,1.43,1.43,0,0,1,1.45-1.56,41.15,41.15,0,0,1,5.44.15.94.94,0,0,1,.85.9,1.69,1.69,0,0,1-1.33,1.68,29.23,29.23,0,0,1-4,.16,34.37,34.37,0,0,1-1.19,11.73,9.26,9.26,0,0,1-1.8,3.34,7.07,7.07,0,0,1-2.18,1.44c-1.43.76-3.15.31-4.53-.35-1.59-.77-2.38-2.45-3.06-4a29.17,29.17,0,0,1-1.69-9.89A135.87,135.87,0,0,1,109.79,92a26.11,26.11,0,0,1,3-10.77c.85-1.46,1.89-3.11,3.66-3.49m33.38-.1c.87-.29,1.51.73,1.5,1.49a197.75,197.75,0,0,0,2.1,30.75c.47,2.94.91,6,2.69,8.52a3.13,3.13,0,0,0,3.27,1.37,4.27,4.27,0,0,0,2.31-1.83c1.29-1.89,1.61-4.22,2-6.42,1.84-10.63,1.3-21.47,1.71-32.21a1.29,1.29,0,0,1,1.36-1.3c1-.08,1,1.14,1,1.82-.35,7.3-.18,14.62-.64,21.92-.18,3-.53,5.94-.91,8.9a22.81,22.81,0,0,1-2.79,9,5,5,0,0,1-7.78,1.72,10.17,10.17,0,0,1-3.35-5.45A35.71,35.71,0,0,1,151,109.1a217.36,217.36,0,0,1-2.08-29.62c0-.69.19-1.57.93-1.84m25.07.83c1.34-1.26,3.33-.83,5-.82a8.11,8.11,0,0,1,5.11,2.4,1.69,1.69,0,0,1,.07,2.4.89.89,0,0,1-1.17.08c-.62-.4-1.08-1-1.74-1.36a8.05,8.05,0,0,0-5.38-.69c-.29,0-.46.26-.65.45a12.44,12.44,0,0,0-3.4,9.21,9.11,9.11,0,0,0,1.3,4.15c1,1.46,2.66,2.21,4.16,3.07a21,21,0,0,1,7.41,6.18,13,13,0,0,1,1,13.26,10.46,10.46,0,0,1-7,5.61,9.18,9.18,0,0,1-5.06-.7,5,5,0,0,1-2.14-2,13.37,13.37,0,0,1-2.13-6.12,45.13,45.13,0,0,1-.16-6.58,2.66,2.66,0,0,1,1.05-2.17,2.58,2.58,0,0,1,1.18,1.67c.18,2.91-.18,5.89.6,8.73a8.5,8.5,0,0,0,1.85,3.45,4.62,4.62,0,0,0,3.77,1,7.5,7.5,0,0,0,5.34-3.25,9.56,9.56,0,0,0,1.49-7.86,11.61,11.61,0,0,0-3.39-5.41,16.76,16.76,0,0,0-3.17-2.51c-1.86-1.11-3.94-1.9-5.54-3.41a10.26,10.26,0,0,1-2.66-5.6,15.63,15.63,0,0,1,4.31-13.24M23,85.3a13,13,0,0,1,6.7.69c.33.16.76.26.88.66a19.57,19.57,0,0,1,1.54,8,2,2,0,0,1-1.27,1.88,14.49,14.49,0,0,1-4.84.93c-2.46.21-5.1.11-7.24-1.24A3,3,0,0,1,17,93.61,23.48,23.48,0,0,1,18,87.84a2.51,2.51,0,0,1,1.29-1.79A16.19,16.19,0,0,1,23,85.3m-.53,2a5.51,5.51,0,0,0-2.1.67,7.8,7.8,0,0,0-1.52,5,2.38,2.38,0,0,0,1.72,2.18,15,15,0,0,0,7.48.15,3.63,3.63,0,0,0,2.08-1,1.32,1.32,0,0,0,.1-1.29,37.08,37.08,0,0,0-.84-3.79,2.33,2.33,0,0,0-1.18-1.55c-1.79-.84-3.84-.49-5.74-.37Z" transform="translate(-4.06 -72.26)"/><rect class="cls-1" width="191.87" height="55.48"/></svg>